<svg width="40" height="40" viewBox="0 0 40 40" fill="none" xmlns="http://www.w3.org/2000/svg">
<circle cx="20" cy="20" r="20" fill="#F25912"/>
<path fill-rule="evenodd" clip-rule="evenodd" d="M17.3336 30H22.6664C26.4116 30 28.2848 30 29.63 29.1833C30.2106 28.8313 30.7105 28.3767 31.1012 27.8456C32 26.6233 32 24.92 32 21.5156C32 18.1111 32 16.4078 31.1012 15.1856C30.7105 14.6545 30.2106 14.1999 29.63 13.8478C28.766 13.3223 27.6836 13.1345 26.0264 13.0678C25.2356 13.0678 24.5552 12.5234 24.4004 11.8178C24.2821 11.301 23.9747 10.8379 23.5302 10.5067C23.0857 10.1755 22.5313 9.99651 21.9608 10.0001H18.0392C16.8536 10.0001 15.8324 10.7612 15.5996 11.8178C15.4448 12.5234 14.7644 13.0678 13.9736 13.0678C12.3176 13.1345 11.2352 13.3234 10.37 13.8478C9.78984 14.2 9.29033 14.6546 8.9 15.1856C8 16.4078 8 18.11 8 21.5156C8 24.9211 8 26.6222 8.8988 27.8456C9.2876 28.3745 9.7868 28.8289 10.37 29.1833C11.7152 30 13.5884 30 17.3336 30ZM20 16.97C17.2388 16.97 14.9996 19.0045 14.9996 21.5145C14.9996 24.0245 17.24 26.0622 20 26.0622C22.76 26.0622 25.0004 24.0267 25.0004 21.5167C25.0004 19.0067 22.76 16.97 20 16.97ZM20 18.7878C18.344 18.7878 17 20.0089 17 21.5156C17 23.0211 18.344 24.2422 20 24.2422C21.656 24.2422 23 23.0211 23 21.5156C23 20.01 21.656 18.7878 20 18.7878ZM25.6664 17.8789C25.6664 17.3767 26.114 16.97 26.6672 16.97H27.9992C28.5512 16.97 29 17.3767 29 17.8789C28.9975 18.1221 28.8908 18.3545 28.7033 18.5249C28.5159 18.6953 28.2631 18.7899 28.0004 18.7878H26.6672C26.537 18.789 26.4079 18.7664 26.2871 18.7214C26.1664 18.6763 26.0564 18.6097 25.9635 18.5253C25.8706 18.4409 25.7965 18.3404 25.7455 18.2295C25.6945 18.1186 25.6677 17.9994 25.6664 17.8789Z" fill="white"/>
</svg>
