<svg width="20" height="20" viewBox="0 0 20 20" fill="none" xmlns="http://www.w3.org/2000/svg">
<rect width="20" height="20" rx="10" fill="white"/>
<path d="M14.7334 6.51623C14.8168 6.43555 14.8833 6.33904 14.929 6.23232C14.9748 6.12559 14.9989 6.01079 15 5.89462C15.001 5.77845 14.979 5.66322 14.9352 5.55568C14.8914 5.44813 14.8267 5.35041 14.7448 5.26822C14.663 5.18603 14.5656 5.12102 14.4585 5.07698C14.3513 5.03293 14.2364 5.01074 14.1206 5.0117C14.0048 5.01265 13.8904 5.03673 13.7839 5.08254C13.6775 5.12834 13.5812 5.19495 13.5007 5.27847L10.0049 8.78407L6.51031 5.27847C6.43047 5.19251 6.33417 5.12356 6.22718 5.07574C6.1202 5.02792 6.0047 5.00221 5.88759 5.00014C5.77048 4.99806 5.65415 5.01967 5.54555 5.06368C5.43694 5.10768 5.33829 5.17318 5.25546 5.25626C5.17264 5.33935 5.10735 5.43831 5.06348 5.54726C5.01961 5.6562 4.99807 5.7729 5.00014 5.89038C5.0022 6.00786 5.02784 6.12371 5.07551 6.23104C5.12318 6.33836 5.19191 6.43496 5.2776 6.51506L8.7699 10.0218L5.27528 13.5274C5.12121 13.6933 5.03734 13.9127 5.04132 14.1393C5.04531 14.366 5.13685 14.5823 5.29665 14.7426C5.45645 14.9029 5.67204 14.9947 5.898 14.9987C6.12396 15.0027 6.34265 14.9186 6.50799 14.764L10.0049 11.2584L13.4996 14.7652C13.6649 14.9197 13.8836 15.0039 14.1095 14.9999C14.3355 14.9959 14.5511 14.904 14.7109 14.7437C14.8707 14.5834 14.9622 14.3672 14.9662 14.1405C14.9702 13.9138 14.8863 13.6944 14.7323 13.5286L11.24 10.0218L14.7334 6.51623Z" fill="#FF383C"/>
</svg>
