<svg width="40" height="40" viewBox="0 0 40 40" fill="none" xmlns="http://www.w3.org/2000/svg">
<rect width="40" height="40" rx="20" fill="white" fill-opacity="0.5" style="mix-blend-mode:luminosity"/>
<path d="M22.5 10.5V11.6113H27.5V12.833H26.5V27.7773C26.5 28.271 26.346 28.6742 26.041 29.0137C25.738 29.3509 25.3995 29.5005 25.001 29.5H15C14.6017 29.5 14.2632 29.3504 13.96 29.0137C13.6552 28.6751 13.5006 28.272 13.5 27.7773V12.833H12.5V11.6113H17.5V10.5H22.5ZM14.5 28.2773H25.5V12.833H14.5V28.2773ZM22.5 16.0557V25.0557H21.5V16.0557H22.5ZM18.5 16.0557V25.0557H17.5V16.0557H18.5Z" stroke="#F25912"/>
</svg>
