<svg width="100" height="100" viewBox="0 0 100 100" fill="none" xmlns="http://www.w3.org/2000/svg">
<g clip-path="url(#clip0_446_1231)">
<g filter="url(#filter0_d_446_1231)">
<path d="M57.4994 15C57.0908 15.0001 56.6884 15.1004 56.3275 15.292C55.9666 15.4837 55.6582 15.7609 55.4292 16.0993C55.2003 16.4378 55.0578 16.8273 55.0142 17.2336C54.9707 17.6399 55.0274 18.0507 55.1794 18.43L65.1794 43.43C65.3651 43.8934 65.6854 44.2906 66.0989 44.5705C66.5124 44.8503 67.0001 44.9999 67.4994 45H87.4994C87.9417 45.0001 88.3762 44.8828 88.7584 44.6602C89.1406 44.4375 89.4569 44.1174 89.675 43.7326C89.893 43.3478 90.0051 42.912 89.9998 42.4697C89.9944 42.0274 89.8718 41.5944 89.6444 41.215L74.6444 16.215C74.4223 15.8444 74.108 15.5377 73.7321 15.3247C73.3562 15.1118 72.9315 14.9999 72.4994 15H57.4994Z" fill="url(#paint0_linear_446_1231)"/>
<path d="M27.4995 15C27.0675 14.9999 26.6428 15.1118 26.2669 15.3247C25.8909 15.5377 25.5766 15.8444 25.3545 16.215L10.3545 41.215C10.1272 41.5944 10.0046 42.0274 9.99921 42.4697C9.99384 42.912 10.1059 43.3478 10.324 43.7326C10.5421 44.1174 10.8584 44.4375 11.2406 44.6602C11.6228 44.8828 12.0572 45.0001 12.4995 45H32.4995C32.9988 44.9999 33.4866 44.8503 33.9001 44.5705C34.3136 44.2906 34.6338 43.8934 34.8195 43.43L44.8195 18.43C44.9716 18.0507 45.0283 17.6399 44.9847 17.2336C44.9412 16.8273 44.7987 16.4378 44.5698 16.0993C44.3408 15.7609 44.0324 15.4837 43.6715 15.292C43.3106 15.1004 42.9082 15.0001 42.4995 15H27.4995Z" fill="url(#paint1_linear_446_1231)"/>
<path d="M42.4994 15C42.0002 15.0001 41.5124 15.1497 41.0989 15.4295C40.6854 15.7094 40.3651 16.1066 40.1794 16.57L30.1794 41.57C30.0274 41.9493 29.9707 42.3601 30.0142 42.7664C30.0578 43.1727 30.2003 43.5622 30.4292 43.9007C30.6582 44.2391 30.9666 44.5163 31.3275 44.708C31.6884 44.8996 32.0908 44.9999 32.4994 45H67.4994C67.9081 44.9999 68.3104 44.8996 68.6713 44.708C69.0323 44.5163 69.3407 44.2391 69.5696 43.9007C69.7986 43.5622 69.9411 43.1727 69.9846 42.7664C70.0281 42.3601 69.9714 41.9493 69.8194 41.57L59.8194 16.57C59.6337 16.1066 59.3135 15.7094 58.9 15.4295C58.4865 15.1497 57.9987 15.0001 57.4994 15H42.4994Z" fill="url(#paint2_linear_446_1231)"/>
<path d="M67.4993 40C66.9955 40.0001 66.5034 40.1524 66.0876 40.4371C65.6718 40.7217 65.3517 41.1253 65.1693 41.595L47.6693 86.595C47.4556 87.1476 47.445 87.7581 47.6396 88.3178C47.8341 88.8774 48.2211 89.3498 48.7315 89.6506C49.242 89.9515 49.8427 90.0613 50.4265 89.9604C51.0104 89.8596 51.5394 89.5546 51.9193 89.1L89.4193 44.1C89.7234 43.735 89.9171 43.2909 89.9779 42.8198C90.0386 42.3487 89.9639 41.87 89.7624 41.4398C89.561 41.0096 89.2411 40.6457 88.8403 40.3907C88.4395 40.1357 87.9744 40.0002 87.4993 40H67.4993Z" fill="url(#paint3_linear_446_1231)"/>
<path d="M12.4991 40C12.024 40.0002 11.5589 40.1357 11.1581 40.3907C10.7573 40.6457 10.4374 41.0096 10.236 41.4398C10.0345 41.87 9.95977 42.3487 10.0205 42.8198C10.0813 43.2909 10.275 43.735 10.5791 44.1L48.0791 89.1C48.459 89.5546 48.988 89.8596 49.5719 89.9604C50.1557 90.0613 50.7564 89.9515 51.2669 89.6506C51.7773 89.3498 52.1643 88.8774 52.3588 88.3178C52.5534 87.7581 52.5428 87.1476 52.3291 86.595L34.8291 41.595C34.6467 41.1253 34.3266 40.7217 33.9108 40.4371C33.495 40.1524 33.0029 40.0001 32.4991 40H12.4991Z" fill="url(#paint4_linear_446_1231)"/>
<path d="M30.7992 40C30.7992 40 29.6892 41.935 30.1692 43.405L47.6692 88.405C47.8518 88.8745 48.172 89.2779 48.5877 89.5623C49.0035 89.8467 49.4955 89.9989 49.9992 89.9989C50.503 89.9989 50.995 89.8467 51.4107 89.5623C51.8265 89.2779 52.1467 88.8745 52.3292 88.405L69.8292 43.405C70.4542 41.8 69.1992 40 69.1992 40H30.7992Z" fill="url(#paint5_linear_446_1231)"/>
<path fill-rule="evenodd" clip-rule="evenodd" d="M25.3545 16.215C25.5766 15.8444 25.8909 15.5377 26.2668 15.3247C26.6428 15.1118 27.0675 14.9999 27.4995 15H72.4995C72.9316 14.9999 73.3563 15.1118 73.7322 15.3247C74.1081 15.5377 74.4224 15.8444 74.6445 16.215L89.6245 41.18C89.9022 41.626 90.0324 42.1482 89.9965 42.6723C89.9606 43.1965 89.7605 43.696 89.4245 44.1L51.9345 89.085L51.7195 89.315C51.4702 89.5515 51.1748 89.7341 50.8517 89.8513C50.5287 89.9686 50.1849 90.0179 49.8419 89.9964C49.4989 89.9748 49.164 89.8827 48.8582 89.7259C48.5524 89.5691 48.2822 89.3509 48.0645 89.085L10.5945 44.115C10.2554 43.7157 10.0503 43.22 10.0081 42.6979C9.96595 42.1757 10.0889 41.6535 10.3595 41.205L25.3545 16.215Z" fill="url(#paint6_linear_446_1231)" fill-opacity="0.7"/>
</g>
</g>
<defs>
<filter id="filter0_d_446_1231" x="0.999023" y="6" width="102.003" height="97.0013" filterUnits="userSpaceOnUse" color-interpolation-filters="sRGB">
<feFlood flood-opacity="0" result="BackgroundImageFix"/>
<feColorMatrix in="SourceAlpha" type="matrix" values="0 0 0 0 0 0 0 0 0 0 0 0 0 0 0 0 0 0 127 0" result="hardAlpha"/>
<feMorphology radius="1" operator="dilate" in="SourceAlpha" result="effect1_dropShadow_446_1231"/>
<feOffset dx="2" dy="2"/>
<feGaussianBlur stdDeviation="5"/>
<feColorMatrix type="matrix" values="0 0 0 0 0.305882 0 0 0 0 0.647059 0 0 0 0 0.968627 0 0 0 1 0"/>
<feBlend mode="normal" in2="BackgroundImageFix" result="effect1_dropShadow_446_1231"/>
<feBlend mode="normal" in="SourceGraphic" in2="effect1_dropShadow_446_1231" result="shape"/>
</filter>
<linearGradient id="paint0_linear_446_1231" x1="67.4994" y1="15" x2="87.4994" y2="60" gradientUnits="userSpaceOnUse">
<stop stop-color="#0FAFFF"/>
<stop offset="1" stop-color="#102784"/>
</linearGradient>
<linearGradient id="paint1_linear_446_1231" x1="39.9995" y1="2.5" x2="22.4995" y2="40" gradientUnits="userSpaceOnUse">
<stop stop-color="#9FF0F9"/>
<stop offset="1" stop-color="#29C3FF"/>
</linearGradient>
<linearGradient id="paint2_linear_446_1231" x1="49.9994" y1="15" x2="49.9994" y2="52.5" gradientUnits="userSpaceOnUse">
<stop stop-color="#3BD5FF"/>
<stop offset="1" stop-color="#367AF2"/>
</linearGradient>
<linearGradient id="paint3_linear_446_1231" x1="99.9993" y1="15" x2="54.9993" y2="85" gradientUnits="userSpaceOnUse">
<stop stop-color="#1B44B1"/>
<stop offset="1" stop-color="#2052CB"/>
</linearGradient>
<linearGradient id="paint4_linear_446_1231" x1="17.4991" y1="30" x2="47.4991" y2="90" gradientUnits="userSpaceOnUse">
<stop stop-color="#0094F0"/>
<stop offset="1" stop-color="#6CE0FF"/>
</linearGradient>
<linearGradient id="paint5_linear_446_1231" x1="49.9992" y1="22.5" x2="49.9992" y2="90" gradientUnits="userSpaceOnUse">
<stop stop-color="#2052CB"/>
<stop offset="1" stop-color="#0FAFFF"/>
</linearGradient>
<linearGradient id="paint6_linear_446_1231" x1="1.87451" y1="-55.625" x2="66.8395" y2="95.63" gradientUnits="userSpaceOnUse">
<stop offset="0.533" stop-color="#FF6CE8" stop-opacity="0"/>
<stop offset="1" stop-color="#FF6CE8"/>
</linearGradient>
<clipPath id="clip0_446_1231">
<rect width="100" height="100" fill="white"/>
</clipPath>
</defs>
</svg>
