<svg width="41" height="40" viewBox="0 0 41 40" fill="none" xmlns="http://www.w3.org/2000/svg">
<circle cx="20" cy="20" r="20" fill="#F25912"/>
<path fill-rule="evenodd" clip-rule="evenodd" d="M12.1529 17.1337L19.0279 23.3837L20 24.2675L20.9721 23.3837L27.8471 17.1337L25.9029 15.3663L21.375 19.4825V10H28.25C28.9793 10 29.6788 10.2634 30.1945 10.7322C30.7103 11.2011 31 11.837 31 12.5V27.5C31 28.163 30.7103 28.7989 30.1945 29.2678C29.6788 29.7366 28.9793 30 28.25 30H11.75C11.0207 30 10.3212 29.7366 9.80546 29.2678C9.28973 28.7989 9 28.163 9 27.5V12.5C9 11.837 9.28973 11.2011 9.80546 10.7322C10.3212 10.2634 11.0207 10 11.75 10H18.625V19.4825L14.0971 15.3663L12.1529 17.1337Z" fill="white"/>
</svg>
