<svg width="22" height="26" viewBox="0 0 22 26" fill="none" xmlns="http://www.w3.org/2000/svg">
<path d="M19.1281 11.55V10.35C19.1281 5.8248 19.1281 3.5616 17.8622 2.1564C16.5963 0.7512 14.5552 0.75 10.4796 0.75H9.39853C5.32291 0.75 3.28294 0.75 2.01701 2.1564C0.751081 3.5628 0.75 5.8248 0.75 10.35V15.15C0.75 19.6752 0.75 21.9384 2.01701 23.3436C3.28402 24.7488 5.32183 24.75 9.39853 24.75" stroke="#272727" stroke-opacity="0.5" stroke-width="1.5" stroke-linecap="round" stroke-linejoin="round"/>
<path d="M5.61481 6.75H14.2633M5.61481 12.75H14.2633" stroke="#272727" stroke-opacity="0.5" stroke-width="1.5" stroke-linecap="round"/>
<path d="M12.1012 23.3424V24.75H13.3704C13.8125 24.75 14.0341 24.75 14.2331 24.6588C14.432 24.5676 14.5887 24.3936 14.9012 24.0468L20.1162 18.2568C20.4114 17.9292 20.5595 17.7648 20.6373 17.5896C20.7876 17.2536 20.7876 16.8576 20.6373 16.5216C20.5584 16.3452 20.4103 16.182 20.1162 15.8544C19.82 15.5268 19.673 15.3624 19.5141 15.2748C19.3646 15.1923 19.1999 15.1494 19.033 15.1494C18.8661 15.1494 18.7014 15.1923 18.5519 15.2748C18.393 15.3624 18.2449 15.5268 17.9508 15.8544L12.7358 21.6432C12.4223 21.99 12.2666 22.164 12.1844 22.3848C12.1023 22.6056 12.1012 22.8504 12.1012 23.3424Z" stroke="#272727" stroke-opacity="0.5" stroke-width="1.5" stroke-linejoin="round"/>
</svg>
