<svg width="40" height="40" viewBox="0 0 40 40" fill="none" xmlns="http://www.w3.org/2000/svg">
<path d="M0 20C0 8.95431 8.95431 0 20 0C31.0457 0 40 8.95431 40 20C40 31.0457 31.0457 40 20 40C8.95431 40 0 31.0457 0 20Z" fill="white" fill-opacity="0.5" style="mix-blend-mode:luminosity"/>
<path d="M12 30H28M13.666 21.3191C13.2396 21.7939 13.0001 22.4372 13 23.1079V26.6667H16.223C16.827 26.6667 17.406 26.4001 17.833 25.9245L27.333 15.3636C27.7592 14.8887 27.9986 14.2454 27.9986 13.5748C27.9986 12.9041 27.7592 12.2608 27.333 11.7859L26.395 10.7415C26.1835 10.5063 25.9323 10.3198 25.6558 10.1926C25.3794 10.0653 25.083 9.9999 24.7838 10C24.4846 10.0001 24.1883 10.0657 23.9119 10.1932C23.6355 10.3206 23.3844 10.5073 23.173 10.7426L13.666 21.3191Z" stroke="#F25912" stroke-width="2" stroke-linecap="round" stroke-linejoin="round"/>
</svg>
