<svg width="16" height="16" viewBox="0 0 16 16" fill="none" xmlns="http://www.w3.org/2000/svg">
<path d="M7.91147 16C5.96955 16 4.26557 15.4107 2.79952 14.232C1.33348 13.0533 0.408013 11.5427 0.0231341 9.7C-0.0186566 9.55267 -0.0038275 9.41633 0.0676212 9.291C0.13907 9.16567 0.251298 9.093 0.404306 9.073C0.547878 9.053 0.674261 9.084 0.783456 9.166C0.891977 9.248 0.969155 9.36467 1.01499 9.516C1.38032 11.1053 2.20468 12.4167 3.48806 13.45C4.77144 14.4833 6.24591 15 7.91147 15C9.88305 15 11.5554 14.321 12.9284 12.963C14.3014 11.605 14.9883 9.95067 14.9889 8C14.9896 6.04933 14.3028 4.395 12.9284 3.037C11.554 1.679 9.8817 1 7.91147 1C6.86468 1 5.88125 1.21867 4.96118 1.656C4.04111 2.09267 3.22889 2.69433 2.52451 3.461H4.52743C4.671 3.461 4.79132 3.509 4.88838 3.605C4.98545 3.701 5.03364 3.82 5.03297 3.962C5.03229 4.104 4.9841 4.22267 4.88838 4.318C4.79267 4.41333 4.67235 4.461 4.52743 4.461H1.65095C1.41975 4.461 1.22597 4.38367 1.06959 4.229C0.913209 4.07433 0.83502 3.88267 0.83502 3.654V0.808C0.83502 0.666 0.883551 0.547333 0.980614 0.452C1.07768 0.356667 1.19766 0.308667 1.34055 0.308C1.48345 0.307333 1.60343 0.355333 1.70049 0.452C1.79755 0.548667 1.84609 0.667333 1.84609 0.808V2.696C2.62798 1.84733 3.544 1.186 4.59416 0.712C5.64432 0.238 6.75009 0.000666667 7.91147 0C9.03375 0 10.0849 0.208667 11.065 0.626C12.045 1.04333 12.9014 1.61467 13.6341 2.34C14.3668 3.06533 14.9444 3.912 15.3671 4.88C15.7897 5.848 16.0007 6.88767 16 7.999C15.9993 9.11033 15.7883 10.1503 15.3671 11.119C14.9458 12.0877 14.3681 12.935 13.6341 13.661C12.9001 14.387 12.0437 14.958 11.065 15.374C10.0863 15.79 9.03578 15.9987 7.91147 16ZM8.47463 7.792L11.5078 10.792C11.6022 10.8853 11.6528 11 11.6595 11.136C11.6662 11.2727 11.6157 11.394 11.5078 11.5C11.4 11.6067 11.281 11.66 11.1509 11.66C11.0195 11.66 10.9002 11.6067 10.793 11.5L7.70926 8.45C7.62096 8.36333 7.55793 8.272 7.52019 8.176C7.48244 8.08 7.46357 7.981 7.46357 7.879V3.5C7.46357 3.358 7.5121 3.23933 7.60916 3.144C7.70622 3.048 7.82654 3 7.97011 3C8.11368 3 8.23366 3.048 8.33005 3.144C8.42644 3.24 8.47463 3.35867 8.47463 3.5V7.792Z" fill="#272727" fill-opacity="0.5"/>
</svg>
