<svg width="4" height="20" viewBox="0 0 4 20" fill="none" xmlns="http://www.w3.org/2000/svg">
<path d="M2 8.09524C1.60444 8.09524 1.21776 8.20695 0.88886 8.41625C0.559961 8.62555 0.303617 8.92303 0.152242 9.27108C0.000866413 9.61913 -0.0387402 10.0021 0.0384302 10.3716C0.115601 10.7411 0.306083 11.0805 0.585788 11.3469C0.865493 11.6133 1.22186 11.7947 1.60982 11.8682C1.99778 11.9417 2.39991 11.9039 2.76537 11.7598C3.13082 11.6156 3.44318 11.3715 3.66294 11.0582C3.8827 10.745 4 10.3767 4 10C4 9.49483 3.78929 9.01034 3.41421 8.65313C3.03914 8.29592 2.53043 8.09524 2 8.09524ZM4 18.0952C4 18.472 3.8827 18.8402 3.66294 19.1535C3.44318 19.4667 3.13082 19.7108 2.76537 19.855C2.39991 19.9992 1.99778 20.0369 1.60982 19.9634C1.22186 19.8899 0.865493 19.7085 0.585788 19.4421C0.306083 19.1757 0.115601 18.8363 0.0384302 18.4668C-0.0387402 18.0974 0.000866413 17.7144 0.152242 17.3663C0.303617 17.0183 0.559961 16.7208 0.88886 16.5115C1.21776 16.3022 1.60444 16.1905 2 16.1905C2.53043 16.1905 3.03914 16.3912 3.41421 16.7484C3.78929 17.1056 4 17.5901 4 18.0952ZM4 1.90476C4 2.28149 3.8827 2.64975 3.66294 2.96299C3.44318 3.27623 3.13082 3.52036 2.76537 3.66453C2.39991 3.8087 1.99778 3.84642 1.60982 3.77292C1.22186 3.69943 0.865493 3.51802 0.585788 3.25163C0.306083 2.98524 0.115601 2.64585 0.0384302 2.27636C-0.0387402 1.90687 0.000866413 1.52389 0.152242 1.17584C0.303617 0.827789 0.559961 0.530308 0.88886 0.321011C1.21776 0.111712 1.60444 0 2 0C2.53043 0 3.03914 0.20068 3.41421 0.557892C3.78929 0.915104 4 1.39959 4 1.90476Z" fill="#272727"/>
</svg>
