<svg width="99" height="94" viewBox="0 0 99 94" fill="none" xmlns="http://www.w3.org/2000/svg">
<g filter="url(#filter0_d_59_5552)">
<path d="M56.5004 9C56.0918 9.0001 55.6894 9.10036 55.3285 9.29201C54.9676 9.48367 54.6591 9.76087 54.4302 10.0993C54.2012 10.4378 54.0588 10.8273 54.0152 11.2336C53.9717 11.6399 54.0284 12.0507 54.1804 12.43L64.1804 37.43C64.3661 37.8934 64.6864 38.2906 65.0998 38.5705C65.5133 38.8503 66.0011 38.9999 66.5004 39H86.5004C86.9427 39.0001 87.3772 38.8828 87.7594 38.6602C88.1416 38.4375 88.4578 38.1174 88.6759 37.7326C88.894 37.3478 89.0061 36.912 89.0007 36.4697C88.9954 36.0274 88.8728 35.5944 88.6454 35.215L73.6454 10.215C73.4233 9.84439 73.109 9.53767 72.7331 9.32473C72.3571 9.11179 71.9324 8.99991 71.5004 9H56.5004Z" fill="url(#paint0_linear_59_5552)"/>
<path d="M26.5005 9C26.0685 8.99991 25.6438 9.11179 25.2679 9.32473C24.8919 9.53767 24.5776 9.84439 24.3555 10.215L9.35553 35.215C9.12817 35.5944 9.00555 36.0274 9.00018 36.4697C8.99482 36.912 9.1069 37.3478 9.32499 37.7326C9.54307 38.1174 9.85936 38.4375 10.2416 38.6602C10.6238 38.8828 11.0582 39.0001 11.5005 39H31.5005C31.9998 38.9999 32.4876 38.8503 32.9011 38.5705C33.3146 38.2906 33.6348 37.8934 33.8205 37.43L43.8205 12.43C43.9725 12.0507 44.0293 11.6399 43.9857 11.2336C43.9422 10.8273 43.7997 10.4378 43.5707 10.0993C43.3418 9.76087 43.0334 9.48367 42.6725 9.29201C42.3116 9.10036 41.9092 9.0001 41.5005 9H26.5005Z" fill="url(#paint1_linear_59_5552)"/>
<path d="M41.5004 9C41.0011 9.00012 40.5133 9.14972 40.0998 9.42953C39.6864 9.70935 39.3661 10.1066 39.1804 10.57L29.1804 35.57C29.0284 35.9493 28.9717 36.3601 29.0152 36.7664C29.0588 37.1727 29.2012 37.5622 29.4302 37.9007C29.6591 38.2391 29.9676 38.5163 30.3285 38.708C30.6894 38.8996 31.0918 38.9999 31.5004 39H66.5004C66.909 38.9999 67.3114 38.8996 67.6723 38.708C68.0332 38.5163 68.3417 38.2391 68.5706 37.9007C68.7995 37.5622 68.942 37.1727 68.9856 36.7664C69.0291 36.3601 68.9724 35.9493 68.8204 35.57L58.8204 10.57C58.6347 10.1066 58.3144 9.70935 57.9009 9.42953C57.4875 9.14972 56.9997 9.00012 56.5004 9H41.5004Z" fill="url(#paint2_linear_59_5552)"/>
<path d="M66.5003 34C65.9964 34.0001 65.5044 34.1524 65.0886 34.4371C64.6728 34.7217 64.3527 35.1253 64.1703 35.595L46.6703 80.595C46.4566 81.1476 46.446 81.7581 46.6406 82.3178C46.8351 82.8774 47.2221 83.3498 47.7325 83.6506C48.2429 83.9515 48.8436 84.0613 49.4275 83.9604C50.0113 83.8596 50.5404 83.5546 50.9203 83.1L88.4203 38.1C88.7243 37.735 88.9181 37.2909 88.9788 36.8198C89.0396 36.3487 88.9649 35.87 88.7634 35.4398C88.562 35.0096 88.2421 34.6457 87.8413 34.3907C87.4405 34.1357 86.9753 34.0002 86.5003 34H66.5003Z" fill="url(#paint3_linear_59_5552)"/>
<path d="M11.5005 34C11.0255 34.0002 10.5603 34.1357 10.1595 34.3907C9.75874 34.6457 9.43888 35.0096 9.23742 35.4398C9.03596 35.87 8.96124 36.3487 9.022 36.8198C9.08277 37.2909 9.27651 37.735 9.58053 38.1L47.0805 83.1C47.4605 83.5546 47.9895 83.8596 48.5734 83.9604C49.1572 84.0613 49.7579 83.9515 50.2683 83.6506C50.7787 83.3498 51.1657 82.8774 51.3603 82.3178C51.5548 81.7581 51.5443 81.1476 51.3305 80.595L33.8305 35.595C33.6481 35.1253 33.3281 34.7217 32.9123 34.4371C32.4965 34.1524 32.0044 34.0001 31.5005 34H11.5005Z" fill="url(#paint4_linear_59_5552)"/>
<path d="M29.8007 34C29.8007 34 28.6907 35.935 29.1707 37.405L46.6707 82.405C46.8533 82.8745 47.1734 83.2779 47.5892 83.5623C48.005 83.8467 48.497 83.9989 49.0007 83.9989C49.5044 83.9989 49.9964 83.8467 50.4122 83.5623C50.828 83.2779 51.1481 82.8745 51.3307 82.405L68.8307 37.405C69.4557 35.8 68.2007 34 68.2007 34H29.8007Z" fill="url(#paint5_linear_59_5552)"/>
<path fill-rule="evenodd" clip-rule="evenodd" d="M24.3555 10.215C24.5776 9.84439 24.8919 9.53767 25.2678 9.32473C25.6437 9.11179 26.0684 8.99991 26.5005 9H71.5005C71.9325 8.99991 72.3572 9.11179 72.7332 9.32473C73.1091 9.53767 73.4234 9.84439 73.6455 10.215L88.6255 35.18C88.9032 35.626 89.0334 36.1482 88.9975 36.6723C88.9616 37.1965 88.7614 37.696 88.4255 38.1L50.9355 83.085L50.7205 83.315C50.4712 83.5515 50.1757 83.7341 49.8527 83.8513C49.5296 83.9686 49.1859 84.0179 48.8429 83.9964C48.4999 83.9748 48.165 83.8827 47.8592 83.7259C47.5534 83.5691 47.2832 83.3509 47.0655 83.085L9.59549 38.115C9.25638 37.7157 9.05126 37.22 9.00909 36.6979C8.96692 36.1757 9.08984 35.6535 9.36049 35.205L24.3555 10.215Z" fill="url(#paint6_linear_59_5552)" fill-opacity="0.7"/>
</g>
<defs>
<filter id="filter0_d_59_5552" x="0" y="0" width="102.003" height="97.0013" filterUnits="userSpaceOnUse" color-interpolation-filters="sRGB">
<feFlood flood-opacity="0" result="BackgroundImageFix"/>
<feColorMatrix in="SourceAlpha" type="matrix" values="0 0 0 0 0 0 0 0 0 0 0 0 0 0 0 0 0 0 127 0" result="hardAlpha"/>
<feMorphology radius="1" operator="dilate" in="SourceAlpha" result="effect1_dropShadow_59_5552"/>
<feOffset dx="2" dy="2"/>
<feGaussianBlur stdDeviation="5"/>
<feColorMatrix type="matrix" values="0 0 0 0 0.305882 0 0 0 0 0.647059 0 0 0 0 0.968627 0 0 0 1 0"/>
<feBlend mode="normal" in2="BackgroundImageFix" result="effect1_dropShadow_59_5552"/>
<feBlend mode="normal" in="SourceGraphic" in2="effect1_dropShadow_59_5552" result="shape"/>
</filter>
<linearGradient id="paint0_linear_59_5552" x1="66.5004" y1="9" x2="86.5004" y2="54" gradientUnits="userSpaceOnUse">
<stop stop-color="#0FAFFF"/>
<stop offset="1" stop-color="#102784"/>
</linearGradient>
<linearGradient id="paint1_linear_59_5552" x1="39.0005" y1="-3.5" x2="21.5005" y2="34" gradientUnits="userSpaceOnUse">
<stop stop-color="#9FF0F9"/>
<stop offset="1" stop-color="#29C3FF"/>
</linearGradient>
<linearGradient id="paint2_linear_59_5552" x1="49.0004" y1="9" x2="49.0004" y2="46.5" gradientUnits="userSpaceOnUse">
<stop stop-color="#3BD5FF"/>
<stop offset="1" stop-color="#367AF2"/>
</linearGradient>
<linearGradient id="paint3_linear_59_5552" x1="99.0003" y1="9" x2="54.0003" y2="79" gradientUnits="userSpaceOnUse">
<stop stop-color="#1B44B1"/>
<stop offset="1" stop-color="#2052CB"/>
</linearGradient>
<linearGradient id="paint4_linear_59_5552" x1="16.5005" y1="24" x2="46.5005" y2="84" gradientUnits="userSpaceOnUse">
<stop stop-color="#0094F0"/>
<stop offset="1" stop-color="#6CE0FF"/>
</linearGradient>
<linearGradient id="paint5_linear_59_5552" x1="49.0007" y1="16.5" x2="49.0007" y2="84" gradientUnits="userSpaceOnUse">
<stop stop-color="#2052CB"/>
<stop offset="1" stop-color="#0FAFFF"/>
</linearGradient>
<linearGradient id="paint6_linear_59_5552" x1="0.875488" y1="-61.625" x2="65.8405" y2="89.63" gradientUnits="userSpaceOnUse">
<stop offset="0.533" stop-color="#FF6CE8" stop-opacity="0"/>
<stop offset="1" stop-color="#FF6CE8"/>
</linearGradient>
</defs>
</svg>
