<svg width="26" height="26" viewBox="0 0 26 26" fill="none" xmlns="http://www.w3.org/2000/svg">
<path d="M0.75 21.75C0.75 20.1587 1.38214 18.6326 2.50736 17.5074C3.63258 16.3821 5.1587 15.75 6.75 15.75H18.75C20.3413 15.75 21.8674 16.3821 22.9926 17.5074C24.1179 18.6326 24.75 20.1587 24.75 21.75C24.75 22.5456 24.4339 23.3087 23.8713 23.8713C23.3087 24.4339 22.5456 24.75 21.75 24.75H3.75C2.95435 24.75 2.19129 24.4339 1.62868 23.8713C1.06607 23.3087 0.75 22.5456 0.75 21.75Z" stroke="#272727" stroke-opacity="0.5" stroke-width="1.5" stroke-linejoin="round"/>
<path d="M12.75 9.75C15.2353 9.75 17.25 7.73528 17.25 5.25C17.25 2.76472 15.2353 0.75 12.75 0.75C10.2647 0.75 8.25 2.76472 8.25 5.25C8.25 7.73528 10.2647 9.75 12.75 9.75Z" stroke="#272727" stroke-opacity="0.5" stroke-width="1.5"/>
</svg>
