<svg width="16" height="16" viewBox="0 0 16 16" fill="none" xmlns="http://www.w3.org/2000/svg">
<path d="M12.8329 1.91511e-07C12.912 -7.21049e-05 12.99 0.0203259 13.0605 0.0595185C13.131 0.0987111 13.1919 0.15558 13.2383 0.225455L13.2743 0.288728L15.946 5.75273L15.9747 5.82691L15.982 5.85455L15.9933 5.91055L16 5.97455L15.9987 6.04727L16 6C15.9993 6.07388 15.9857 6.14694 15.96 6.21527L15.94 6.25891L15.9133 6.30691L15.8787 6.35709L8.39838 15.7855C8.33432 15.8788 8.24388 15.9465 8.14102 15.9782L8.10235 15.9884L8.03767 15.9985L7.99833 16L7.93166 15.9949L7.87432 15.9833L7.80564 15.9585L7.78831 15.9498C7.72657 15.9199 7.67152 15.8757 7.62695 15.8204L0.112014 6.34691L0.0706755 6.28364L0.0386716 6.216L0.0153353 6.14327L0 6.04873V5.95564L0.0100013 5.88364L0.0166688 5.85455L0.0386716 5.78546L0.0573405 5.744L2.72434 0.289455C2.76151 0.213427 2.81467 0.148087 2.87945 0.0987856C2.94424 0.0494845 3.01881 0.0176254 3.09705 0.0058183L3.1644 1.91511e-07H12.8329ZM10.6033 6.54545H5.39267L7.99967 13.9345L10.6033 6.54545ZM4.32254 6.54545H1.59087L6.50681 12.7404L4.32254 6.54545ZM14.4051 6.54545H11.6761L9.49385 12.7353L14.4051 6.54545ZM5.348 1.09018H3.46443L1.33083 5.45455H4.28054L5.348 1.09018ZM9.6152 1.09018H6.3828L5.316 5.45455H10.6813L9.6152 1.09018ZM12.5329 1.09018H10.6493L11.7168 5.45455H14.6658L12.5329 1.09018Z" fill="#272727" fill-opacity="0.5"/>
</svg>
