<svg width="13" height="17" viewBox="0 0 13 17" fill="none" xmlns="http://www.w3.org/2000/svg">
<path d="M0.5 16.5H12.5M1.7495 9.55524C1.42971 9.93509 1.25008 10.4497 1.25 10.9863V13.8334H3.66725C4.12025 13.8334 4.5545 13.6201 4.87475 13.2396L11.9998 4.79089C12.3194 4.41098 12.4989 3.89634 12.4989 3.3598C12.4989 2.82326 12.3194 2.30862 11.9998 1.92872L11.2963 1.09318C11.1376 0.905048 10.9492 0.755827 10.7419 0.654045C10.5345 0.552264 10.3123 0.499918 10.0878 0.5C9.86342 0.500083 9.6412 0.552592 9.43391 0.654526C9.22661 0.756461 9.03831 0.90582 8.87975 1.09407L1.7495 9.55524Z" stroke="#F25912" stroke-linecap="round" stroke-linejoin="round"/>
</svg>
